<svg width="474" height="577" viewBox="0 0 474 577" fill="none" xmlns="http://www.w3.org/2000/svg">
<path d="M237.402 461L219.377 411.078L218.121 406.718V402L219.377 394.511L221.621 389.5L225.532 386.663L231.121 383.5L237.402 381.867L249.121 380.559H260.701L284.44 381.867L306.421 384.919L333.121 390.5L358.121 396.5L369.121 399.742L381.121 403.5L395.121 409.5L406.621 417.461L445.121 452.094L432.121 433L423.621 419L415.445 403.5L412.808 395V386.663L416.621 366L417.121 356L416.621 350.5L415.445 345.681L411.621 337L406.213 328.241L393.025 316.47L382.621 310.5L372.621 306L361.621 301.5L351.262 299.031L328.621 293.5L306.421 289.875L282.621 285.5L259.382 283.335L234.121 281.592H211.025H178.933L147.72 283.335L115.189 288.131L82.6572 295.979L75.6234 278.976L60.2369 272H43.0919L30.1208 281.5L26.1208 289.5L16.2755 303L21.1208 312L23.7489 319.958L29.1208 322L31.6208 323L34.2996 323.01L32.6208 323.5L31.1208 324.5L28.6208 326.5L23.7489 330.857L18.6208 335.5L15.1208 340.5L13.6208 342.5L12.6208 344.5L11.6208 346.5L11.0001 348.733L10.1208 351L9.62085 353V355.5L10.1208 358.324L12.6208 363.5L14.1208 366L16.2755 368.352L18.6208 370.5L21.1208 372.5L24.1208 374.5L26.8262 375.763L33.1208 379.5L40.1208 382.5L47.1208 385.5L54.6208 387.5L69.6208 392L84.8553 396.254L101.621 400L118.266 402.358L150.621 405.5L165.121 406H172.621L180.252 406.718L187.121 408.5L194.621 412L201.621 415.5L208.387 421.541L237.402 461Z" fill="#AEC5CE" stroke="#AEC5CE"/>
<ellipse cx="47.6625" cy="298.283" rx="37.8752" ry="29.3111" transform="rotate(-32.1203 47.6625 298.283)" fill="#AEC5CE"/>
<ellipse cx="369.586" cy="124.516" rx="24.1778" ry="36.7451" transform="rotate(-4.46463 369.586 124.516)" fill="#7F2941"/>
<path d="M221.621 61.6608C273.17 110.476 300.621 144.661 353.621 186.661C394.205 218.822 429.511 119.641 449.214 52.9982C451.584 44.7594 453.762 37.1669 455.677 30.4758C458.588 20.0732 460.924 11.4577 462.621 5.66083C466.15 -6.39636 462.674 6.02072 455.677 30.4758C453.764 37.3095 451.604 44.9145 449.214 52.9982C430.79 117.041 400.752 220.144 392.621 242.661C380.646 275.821 435.7 426.069 444.46 449.566C445.215 451.572 445.621 452.661 445.621 452.661C445.621 452.661 445.21 451.578 444.46 449.566C435.593 426.001 378.601 275.896 366.621 278.661C356.063 281.097 278.222 400.289 249.354 444.976C245.726 450.969 242.138 456.561 238.621 461.661C238.621 461.661 242.678 455.311 249.354 444.976C287.269 382.339 329.407 275.949 337.621 230.661C346.621 181.04 274.156 127.327 221.621 61.6608Z" fill="#7F2941"/>
<path d="M221.621 61.6608C273.17 110.476 300.621 144.661 353.621 186.661C406.621 228.661 450.621 46.6608 462.621 5.66083C474.621 -35.3392 405.621 206.661 392.621 242.661C379.621 278.661 445.621 452.661 445.621 452.661C445.621 452.661 379.621 275.661 366.621 278.661C353.621 281.661 238.621 461.661 238.621 461.661C278.896 403.256 328.621 280.282 337.621 230.661C346.621 181.04 274.156 127.327 221.621 61.6608Z" stroke="#7F2941"/>
<path d="M71.4884 557.456C66.427 557.456 62.059 556.763 58.3844 555.376C54.7097 553.92 51.659 551.944 49.2324 549.448C46.875 546.883 45.107 543.867 43.9284 540.4C42.819 536.864 42.2644 532.981 42.2644 528.752V483.928H58.4884V527.4C58.4884 530.312 58.8004 532.808 59.4244 534.888C60.1177 536.899 61.019 538.563 62.1284 539.88C63.307 541.128 64.6937 542.029 66.2884 542.584C67.9524 543.139 69.755 543.416 71.6964 543.416C75.6484 543.416 78.8377 542.203 81.2644 539.776C83.7604 537.349 85.0084 533.224 85.0084 527.4V483.928H101.232V528.752C101.232 532.981 100.643 536.864 99.4644 540.4C98.2857 543.936 96.483 546.987 94.0564 549.552C91.6297 552.048 88.5444 553.989 84.8004 555.376C81.0564 556.763 76.619 557.456 71.4884 557.456ZM167.692 495.16C165.473 497.448 162.838 500.429 159.788 504.104C156.737 507.709 153.582 511.661 150.324 515.96C147.065 520.259 143.841 524.696 140.652 529.272C137.462 533.848 134.62 538.216 132.124 542.376H168.836V556H112.156V546.328C114.097 542.792 116.454 538.875 119.228 534.576C122.07 530.208 125.017 525.84 128.068 521.472C131.118 517.035 134.204 512.771 137.324 508.68C140.513 504.52 143.46 500.811 146.164 497.552H113.82V483.928H167.692V495.16ZM231.31 556C230.548 553.504 229.681 550.939 228.71 548.304C227.809 545.669 226.908 543.035 226.006 540.4H197.926C197.025 543.035 196.089 545.669 195.118 548.304C194.217 550.939 193.385 553.504 192.622 556H175.774C178.478 548.235 181.044 541.059 183.47 534.472C185.897 527.885 188.254 521.68 190.542 515.856C192.9 510.032 195.188 504.52 197.406 499.32C199.694 494.051 202.052 488.92 204.478 483.928H219.974C222.332 488.92 224.654 494.051 226.942 499.32C229.23 504.52 231.518 510.032 233.806 515.856C236.164 521.68 238.556 527.885 240.982 534.472C243.409 541.059 245.974 548.235 248.678 556H231.31ZM211.862 500.256C211.516 501.296 210.996 502.717 210.302 504.52C209.609 506.323 208.812 508.403 207.91 510.76C207.009 513.117 206.004 515.717 204.894 518.56C203.854 521.403 202.78 524.384 201.67 527.504H222.158C221.049 524.384 219.974 521.403 218.934 518.56C217.894 515.717 216.889 513.117 215.918 510.76C215.017 508.403 214.22 506.323 213.526 504.52C212.833 502.717 212.278 501.296 211.862 500.256ZM277.143 483.928C278.392 486.216 279.813 489.059 281.408 492.456C283.072 495.784 284.77 499.424 286.504 503.376C288.306 507.259 290.074 511.245 291.808 515.336C293.541 519.427 295.17 523.275 296.696 526.88C298.221 523.275 299.85 519.427 301.584 515.336C303.317 511.245 305.05 507.259 306.784 503.376C308.586 499.424 310.285 495.784 311.88 492.456C313.544 489.059 315 486.216 316.248 483.928H331.016C331.709 488.712 332.333 494.085 332.888 500.048C333.512 505.941 334.032 512.112 334.448 518.56C334.933 524.939 335.349 531.352 335.696 537.8C336.112 544.248 336.458 550.315 336.736 556H320.928C320.72 548.997 320.442 541.371 320.096 533.12C319.749 524.869 319.229 516.549 318.536 508.16C317.288 511.072 315.901 514.296 314.376 517.832C312.85 521.368 311.325 524.904 309.8 528.44C308.344 531.976 306.922 535.373 305.536 538.632C304.149 541.821 302.97 544.56 302 546.848H290.664C289.693 544.56 288.514 541.821 287.128 538.632C285.741 535.373 284.285 531.976 282.76 528.44C281.304 524.904 279.813 521.368 278.288 517.832C276.762 514.296 275.376 511.072 274.128 508.16C273.434 516.549 272.914 524.869 272.568 533.12C272.221 541.371 271.944 548.997 271.736 556H255.928C256.205 550.315 256.517 544.248 256.864 537.8C257.28 531.352 257.696 524.939 258.112 518.56C258.597 512.112 259.117 505.941 259.672 500.048C260.296 494.085 260.954 488.712 261.648 483.928H277.143ZM375.367 556.936C371.415 556.936 367.463 556.797 363.511 556.52C359.629 556.312 355.573 555.757 351.343 554.856V484.968C354.671 484.344 358.311 483.893 362.263 483.616C366.215 483.269 369.89 483.096 373.287 483.096C377.863 483.096 382.058 483.443 385.871 484.136C389.754 484.76 393.082 485.869 395.855 487.464C398.629 489.059 400.778 491.173 402.303 493.808C403.898 496.373 404.695 499.563 404.695 503.376C404.695 509.131 401.922 513.672 396.375 517C400.951 518.733 404.071 521.091 405.735 524.072C407.399 527.053 408.231 530.416 408.231 534.16C408.231 541.717 405.458 547.403 399.911 551.216C394.434 555.029 386.253 556.936 375.367 556.936ZM367.151 524.592V543.208C368.33 543.347 369.613 543.451 370.999 543.52C372.386 543.589 373.911 543.624 375.575 543.624C380.429 543.624 384.346 542.931 387.327 541.544C390.309 540.157 391.799 537.592 391.799 533.848C391.799 530.52 390.551 528.163 388.055 526.776C385.559 525.32 381.989 524.592 377.343 524.592H367.151ZM367.151 512.216H375.055C380.047 512.216 383.618 511.592 385.767 510.344C387.917 509.027 388.991 506.947 388.991 504.104C388.991 501.192 387.882 499.147 385.663 497.968C383.445 496.789 380.186 496.2 375.887 496.2C374.501 496.2 373.01 496.235 371.415 496.304C369.821 496.304 368.399 496.373 367.151 496.512V512.216ZM440.874 543.624C443.162 543.624 445.034 543.451 446.49 543.104C448.016 542.688 449.229 542.168 450.13 541.544C451.032 540.851 451.656 540.053 452.002 539.152C452.349 538.251 452.522 537.245 452.522 536.136C452.522 533.779 451.413 531.837 449.194 530.312C446.976 528.717 443.162 527.019 437.754 525.216C435.397 524.384 433.04 523.448 430.682 522.408C428.325 521.299 426.21 519.947 424.338 518.352C422.466 516.688 420.941 514.712 419.762 512.424C418.584 510.067 417.994 507.224 417.994 503.896C417.994 500.568 418.618 497.587 419.866 494.952C421.114 492.248 422.882 489.96 425.17 488.088C427.458 486.216 430.232 484.795 433.49 483.824C436.749 482.784 440.424 482.264 444.514 482.264C449.368 482.264 453.562 482.784 457.098 483.824C460.634 484.864 463.546 486.008 465.834 487.256L461.154 500.048C459.144 499.008 456.89 498.107 454.394 497.344C451.968 496.512 449.021 496.096 445.554 496.096C441.672 496.096 438.864 496.651 437.13 497.76C435.466 498.8 434.634 500.429 434.634 502.648C434.634 503.965 434.946 505.075 435.57 505.976C436.194 506.877 437.061 507.709 438.17 508.472C439.349 509.165 440.666 509.824 442.122 510.448C443.648 511.003 445.312 511.592 447.114 512.216C450.858 513.603 454.117 514.989 456.89 516.376C459.664 517.693 461.952 519.253 463.754 521.056C465.626 522.859 467.013 524.973 467.914 527.4C468.816 529.827 469.266 532.773 469.266 536.24C469.266 542.965 466.909 548.2 462.194 551.944C457.48 555.619 450.373 557.456 440.874 557.456C437.685 557.456 434.808 557.248 432.242 556.832C429.677 556.485 427.389 556.035 425.378 555.48C423.437 554.925 421.738 554.336 420.282 553.712C418.896 553.088 417.717 552.499 416.746 551.944L421.322 539.048C423.472 540.227 426.106 541.301 429.226 542.272C432.416 543.173 436.298 543.624 440.874 543.624Z" fill="#7F2941"/>
</svg>
