<svg width="1295" height="470" viewBox="0 0 1295 470" fill="none" xmlns="http://www.w3.org/2000/svg">
<path d="M237.402 461L219.377 411.078L218.121 406.718V402L219.377 394.511L221.621 389.5L225.532 386.663L231.121 383.5L237.402 381.867L249.121 380.559H260.701L284.44 381.867L306.421 384.919L333.121 390.5L358.121 396.5L369.121 399.742L381.121 403.5L395.121 409.5L406.621 417.461L445.121 452.094L432.121 433L423.621 419L415.445 403.5L412.808 395V386.663L416.621 366L417.121 356L416.621 350.5L415.445 345.681L411.621 337L406.213 328.241L393.025 316.47L382.621 310.5L372.621 306L361.621 301.5L351.262 299.031L328.621 293.5L306.421 289.875L282.621 285.5L259.382 283.335L234.121 281.592H211.025H178.933L147.72 283.335L115.189 288.131L82.6572 295.979L75.6234 278.976L60.2369 272H43.0919L30.1208 281.5L26.1208 289.5L16.2755 303L21.1208 312L23.7489 319.958L29.1208 322L31.6208 323L34.2996 323.01L32.6208 323.5L31.1208 324.5L28.6208 326.5L23.7489 330.857L18.6208 335.5L15.1208 340.5L13.6208 342.5L12.6208 344.5L11.6208 346.5L11.0001 348.733L10.1208 351L9.62085 353V355.5L10.1208 358.324L12.6208 363.5L14.1208 366L16.2755 368.352L18.6208 370.5L21.1208 372.5L24.1208 374.5L26.8262 375.763L33.1208 379.5L40.1208 382.5L47.1208 385.5L54.6208 387.5L69.6208 392L84.8553 396.254L101.621 400L118.266 402.358L150.621 405.5L165.121 406H172.621L180.252 406.718L187.121 408.5L194.621 412L201.621 415.5L208.387 421.541L237.402 461Z" fill="#AEC5CE" stroke="#AEC5CE"/>
<ellipse cx="47.6625" cy="298.283" rx="37.8752" ry="29.3111" transform="rotate(-32.1203 47.6625 298.283)" fill="#AEC5CE"/>
<ellipse cx="369.586" cy="124.516" rx="24.1778" ry="36.7451" transform="rotate(-4.46463 369.586 124.516)" fill="#7F2941"/>
<path d="M221.621 61.6608C273.17 110.476 300.621 144.661 353.621 186.661C394.205 218.822 429.511 119.641 449.214 52.9982C451.584 44.7594 453.762 37.1669 455.677 30.4758C458.588 20.0732 460.924 11.4577 462.621 5.66083C466.15 -6.39636 462.674 6.02072 455.677 30.4758C453.764 37.3095 451.604 44.9145 449.214 52.9982C430.79 117.041 400.752 220.144 392.621 242.661C380.646 275.821 435.7 426.069 444.46 449.566C445.215 451.572 445.621 452.661 445.621 452.661C445.621 452.661 445.21 451.578 444.46 449.566C435.593 426.001 378.601 275.896 366.621 278.661C356.063 281.097 278.222 400.289 249.354 444.976C245.726 450.969 242.138 456.561 238.621 461.661C238.621 461.661 242.678 455.311 249.354 444.976C287.269 382.339 329.407 275.949 337.621 230.661C346.621 181.04 274.156 127.327 221.621 61.6608Z" fill="#7F2941"/>
<path d="M221.621 61.6608C273.17 110.476 300.621 144.661 353.621 186.661C406.621 228.661 450.621 46.6608 462.621 5.66083C474.621 -35.3392 405.621 206.661 392.621 242.661C379.621 278.661 445.621 452.661 445.621 452.661C445.621 452.661 379.621 275.661 366.621 278.661C353.621 281.661 238.621 461.661 238.621 461.661C278.896 403.256 328.621 280.282 337.621 230.661C346.621 181.04 274.156 127.327 221.621 61.6608Z" stroke="#7F2941"/>
<path d="M541.649 212.825C539.156 212.825 536.993 212.44 535.159 211.67C533.326 210.9 531.823 209.855 530.649 208.535C529.476 207.178 528.596 205.583 528.009 203.75C527.459 201.917 527.184 199.937 527.184 197.81V173.885H532.519V197.205C532.519 201.018 533.363 203.787 535.049 205.51C536.736 207.233 538.936 208.095 541.649 208.095C543.006 208.095 544.234 207.893 545.334 207.49C546.471 207.05 547.443 206.39 548.249 205.51C549.056 204.63 549.679 203.512 550.119 202.155C550.559 200.762 550.779 199.112 550.779 197.205V173.885H556.114V197.81C556.114 199.937 555.821 201.917 555.234 203.75C554.684 205.583 553.804 207.178 552.594 208.535C551.421 209.855 549.918 210.9 548.084 211.67C546.288 212.44 544.143 212.825 541.649 212.825ZM588.666 178.12C587.823 179.073 586.833 180.228 585.696 181.585C584.596 182.905 583.423 184.39 582.176 186.04C580.93 187.653 579.646 189.377 578.326 191.21C577.006 193.007 575.705 194.84 574.421 196.71C573.175 198.543 571.983 200.377 570.846 202.21C569.71 204.043 568.683 205.785 567.766 207.435H589.216V212H561.551V208.425C562.321 206.958 563.22 205.345 564.246 203.585C565.31 201.825 566.428 200.028 567.601 198.195C568.811 196.362 570.058 194.51 571.341 192.64C572.625 190.77 573.89 188.973 575.136 187.25C576.42 185.527 577.648 183.913 578.821 182.41C580.031 180.907 581.131 179.587 582.121 178.45H562.541V173.885H588.666V178.12ZM606.28 212.33C605.51 212.33 604.666 212.312 603.75 212.275C602.87 212.238 601.971 212.183 601.055 212.11C600.175 212.037 599.295 211.945 598.415 211.835C597.535 211.725 596.728 211.578 595.995 211.395V174.435C596.728 174.252 597.535 174.105 598.415 173.995C599.295 173.885 600.175 173.793 601.055 173.72C601.971 173.647 602.87 173.592 603.75 173.555C604.63 173.518 605.455 173.5 606.225 173.5C608.425 173.5 610.478 173.665 612.385 173.995C614.328 174.325 615.996 174.893 617.39 175.7C618.82 176.47 619.938 177.497 620.745 178.78C621.551 180.063 621.955 181.64 621.955 183.51C621.955 185.6 621.46 187.323 620.47 188.68C619.48 190 618.16 190.99 616.51 191.65C618.746 192.31 620.525 193.355 621.845 194.785C623.165 196.215 623.825 198.232 623.825 200.835C623.825 204.648 622.413 207.527 619.59 209.47C616.803 211.377 612.366 212.33 606.28 212.33ZM601.275 194.235V207.655C601.678 207.692 602.155 207.728 602.705 207.765C603.181 207.802 603.731 207.838 604.355 207.875C605.015 207.875 605.766 207.875 606.61 207.875C608.186 207.875 609.671 207.783 611.065 207.6C612.495 207.38 613.741 207.013 614.805 206.5C615.868 205.987 616.711 205.272 617.335 204.355C617.995 203.438 618.325 202.283 618.325 200.89C618.325 199.643 618.086 198.598 617.61 197.755C617.133 196.875 616.436 196.178 615.52 195.665C614.64 195.152 613.576 194.785 612.33 194.565C611.083 194.345 609.69 194.235 608.15 194.235H601.275ZM601.275 189.945H606.885C608.205 189.945 609.451 189.853 610.625 189.67C611.798 189.487 612.806 189.157 613.65 188.68C614.53 188.203 615.208 187.58 615.685 186.81C616.198 186.04 616.455 185.068 616.455 183.895C616.455 182.795 616.198 181.878 615.685 181.145C615.171 180.375 614.456 179.77 613.54 179.33C612.66 178.853 611.615 178.505 610.405 178.285C609.195 178.065 607.911 177.955 606.555 177.955C605.198 177.955 604.135 177.973 603.365 178.01C602.595 178.047 601.898 178.102 601.275 178.175V189.945ZM631.336 212V173.885H654.601V178.45H636.671V189.78H652.621V194.235H636.671V207.435H655.976V212H631.336ZM690.972 173.885C689.836 175.132 688.552 176.525 687.122 178.065C685.692 179.568 684.189 181.127 682.612 182.74C681.072 184.317 679.532 185.875 677.992 187.415C676.452 188.955 675.004 190.385 673.647 191.705C675.224 192.805 676.892 194.162 678.652 195.775C680.412 197.388 682.136 199.112 683.822 200.945C685.509 202.778 687.086 204.648 688.552 206.555C690.056 208.462 691.302 210.277 692.292 212H686.022C684.922 210.277 683.657 208.553 682.227 206.83C680.797 205.07 679.276 203.402 677.662 201.825C676.086 200.212 674.472 198.727 672.822 197.37C671.209 196.013 669.632 194.858 668.092 193.905V212H662.757V173.885H668.092V190.715C669.376 189.505 670.787 188.148 672.327 186.645C673.867 185.105 675.389 183.565 676.892 182.025C678.396 180.485 679.807 179.018 681.127 177.625C682.484 176.195 683.621 174.948 684.537 173.885H690.972ZM697.347 173.885H702.682V212H697.347V173.885ZM720.973 208.205C726.546 208.205 729.333 206.298 729.333 202.485C729.333 201.312 729.076 200.322 728.563 199.515C728.086 198.672 727.426 197.957 726.583 197.37C725.739 196.747 724.768 196.215 723.668 195.775C722.604 195.335 721.468 194.895 720.258 194.455C718.864 193.978 717.544 193.447 716.298 192.86C715.051 192.237 713.969 191.522 713.053 190.715C712.136 189.872 711.403 188.882 710.853 187.745C710.339 186.608 710.083 185.233 710.083 183.62C710.083 180.283 711.219 177.68 713.493 175.81C715.766 173.94 718.901 173.005 722.898 173.005C725.208 173.005 727.298 173.262 729.168 173.775C731.074 174.252 732.468 174.783 733.348 175.37L731.643 179.715C730.873 179.238 729.718 178.78 728.178 178.34C726.674 177.863 724.914 177.625 722.898 177.625C721.871 177.625 720.918 177.735 720.038 177.955C719.158 178.175 718.388 178.505 717.728 178.945C717.068 179.385 716.536 179.953 716.133 180.65C715.766 181.31 715.583 182.098 715.583 183.015C715.583 184.042 715.784 184.903 716.188 185.6C716.591 186.297 717.159 186.92 717.893 187.47C718.626 187.983 719.469 188.46 720.423 188.9C721.413 189.34 722.494 189.78 723.668 190.22C725.318 190.88 726.821 191.54 728.178 192.2C729.571 192.86 730.763 193.648 731.753 194.565C732.779 195.482 733.568 196.582 734.118 197.865C734.668 199.112 734.943 200.633 734.943 202.43C734.943 205.767 733.714 208.333 731.258 210.13C728.838 211.927 725.409 212.825 720.973 212.825C719.469 212.825 718.076 212.715 716.793 212.495C715.546 212.312 714.428 212.092 713.438 211.835C712.448 211.542 711.586 211.248 710.853 210.955C710.156 210.625 709.606 210.35 709.203 210.13L710.798 205.73C711.641 206.207 712.924 206.738 714.648 207.325C716.371 207.912 718.479 208.205 720.973 208.205ZM766.855 173.885V178.505H754.865V212H749.53V178.505H737.54V173.885H766.855ZM794.409 212C793.786 210.35 793.199 208.737 792.649 207.16C792.099 205.547 791.531 203.915 790.944 202.265H773.674L770.209 212H764.654C766.121 207.967 767.496 204.245 768.779 200.835C770.062 197.388 771.309 194.125 772.519 191.045C773.766 187.965 774.994 185.032 776.204 182.245C777.414 179.422 778.679 176.635 779.999 173.885H784.894C786.214 176.635 787.479 179.422 788.689 182.245C789.899 185.032 791.109 187.965 792.319 191.045C793.566 194.125 794.831 197.388 796.114 200.835C797.397 204.245 798.772 207.967 800.239 212H794.409ZM789.404 197.865C788.231 194.675 787.057 191.595 785.884 188.625C784.747 185.618 783.556 182.74 782.309 179.99C781.026 182.74 779.797 185.618 778.624 188.625C777.487 191.595 776.351 194.675 775.214 197.865H789.404ZM831.539 212C830.732 210.643 829.797 209.122 828.734 207.435C827.707 205.748 826.589 204.007 825.379 202.21C824.169 200.377 822.904 198.525 821.584 196.655C820.3 194.785 819.017 192.988 817.734 191.265C816.45 189.505 815.204 187.855 813.994 186.315C812.784 184.775 811.665 183.418 810.639 182.245V212H805.414V173.885H809.649C811.372 175.718 813.205 177.863 815.149 180.32C817.129 182.74 819.072 185.252 820.979 187.855C822.922 190.422 824.737 192.952 826.424 195.445C828.147 197.938 829.595 200.157 830.769 202.1V173.885H835.994V212H831.539ZM883.623 212C882.999 210.35 882.413 208.737 881.863 207.16C881.313 205.547 880.744 203.915 880.158 202.265H862.888L859.423 212H853.868C855.334 207.967 856.709 204.245 857.993 200.835C859.276 197.388 860.523 194.125 861.733 191.045C862.979 187.965 864.208 185.032 865.418 182.245C866.628 179.422 867.893 176.635 869.213 173.885H874.108C875.428 176.635 876.693 179.422 877.903 182.245C879.113 185.032 880.323 187.965 881.533 191.045C882.779 194.125 884.044 197.388 885.328 200.835C886.611 204.245 887.986 207.967 889.453 212H883.623ZM878.618 197.865C877.444 194.675 876.271 191.595 875.098 188.625C873.961 185.618 872.769 182.74 871.523 179.99C870.239 182.74 869.011 185.618 867.838 188.625C866.701 191.595 865.564 194.675 864.428 197.865H878.618ZM904.342 208.205C909.915 208.205 912.702 206.298 912.702 202.485C912.702 201.312 912.445 200.322 911.932 199.515C911.455 198.672 910.795 197.957 909.952 197.37C909.109 196.747 908.137 196.215 907.037 195.775C905.974 195.335 904.837 194.895 903.627 194.455C902.234 193.978 900.914 193.447 899.667 192.86C898.42 192.237 897.339 191.522 896.422 190.715C895.505 189.872 894.772 188.882 894.222 187.745C893.709 186.608 893.452 185.233 893.452 183.62C893.452 180.283 894.589 177.68 896.862 175.81C899.135 173.94 902.27 173.005 906.267 173.005C908.577 173.005 910.667 173.262 912.537 173.775C914.444 174.252 915.837 174.783 916.717 175.37L915.012 179.715C914.242 179.238 913.087 178.78 911.547 178.34C910.044 177.863 908.284 177.625 906.267 177.625C905.24 177.625 904.287 177.735 903.407 177.955C902.527 178.175 901.757 178.505 901.097 178.945C900.437 179.385 899.905 179.953 899.502 180.65C899.135 181.31 898.952 182.098 898.952 183.015C898.952 184.042 899.154 184.903 899.557 185.6C899.96 186.297 900.529 186.92 901.262 187.47C901.995 187.983 902.839 188.46 903.792 188.9C904.782 189.34 905.864 189.78 907.037 190.22C908.687 190.88 910.19 191.54 911.547 192.2C912.94 192.86 914.132 193.648 915.122 194.565C916.149 195.482 916.937 196.582 917.487 197.865C918.037 199.112 918.312 200.633 918.312 202.43C918.312 205.767 917.084 208.333 914.627 210.13C912.207 211.927 908.779 212.825 904.342 212.825C902.839 212.825 901.445 212.715 900.162 212.495C898.915 212.312 897.797 212.092 896.807 211.835C895.817 211.542 894.955 211.248 894.222 210.955C893.525 210.625 892.975 210.35 892.572 210.13L894.167 205.73C895.01 206.207 896.294 206.738 898.017 207.325C899.74 207.912 901.849 208.205 904.342 208.205ZM933.614 208.205C939.188 208.205 941.974 206.298 941.974 202.485C941.974 201.312 941.718 200.322 941.204 199.515C940.728 198.672 940.068 197.957 939.224 197.37C938.381 196.747 937.409 196.215 936.309 195.775C935.246 195.335 934.109 194.895 932.899 194.455C931.506 193.978 930.186 193.447 928.939 192.86C927.693 192.237 926.611 191.522 925.694 190.715C924.778 189.872 924.044 188.882 923.494 187.745C922.981 186.608 922.724 185.233 922.724 183.62C922.724 180.283 923.861 177.68 926.134 175.81C928.408 173.94 931.543 173.005 935.539 173.005C937.849 173.005 939.939 173.262 941.809 173.775C943.716 174.252 945.109 174.783 945.989 175.37L944.284 179.715C943.514 179.238 942.359 178.78 940.819 178.34C939.316 177.863 937.556 177.625 935.539 177.625C934.513 177.625 933.559 177.735 932.679 177.955C931.799 178.175 931.029 178.505 930.369 178.945C929.709 179.385 929.178 179.953 928.774 180.65C928.408 181.31 928.224 182.098 928.224 183.015C928.224 184.042 928.426 184.903 928.829 185.6C929.233 186.297 929.801 186.92 930.534 187.47C931.268 187.983 932.111 188.46 933.064 188.9C934.054 189.34 935.136 189.78 936.309 190.22C937.959 190.88 939.463 191.54 940.819 192.2C942.213 192.86 943.404 193.648 944.394 194.565C945.421 195.482 946.209 196.582 946.759 197.865C947.309 199.112 947.584 200.633 947.584 202.43C947.584 205.767 946.356 208.333 943.899 210.13C941.479 211.927 938.051 212.825 933.614 212.825C932.111 212.825 930.718 212.715 929.434 212.495C928.188 212.312 927.069 212.092 926.079 211.835C925.089 211.542 924.228 211.248 923.494 210.955C922.798 210.625 922.248 210.35 921.844 210.13L923.439 205.73C924.283 206.207 925.566 206.738 927.289 207.325C929.013 207.912 931.121 208.205 933.614 208.205ZM952.492 192.915C952.492 189.652 952.968 186.773 953.922 184.28C954.912 181.787 956.232 179.715 957.882 178.065C959.568 176.378 961.512 175.113 963.712 174.27C965.948 173.427 968.313 173.005 970.807 173.005C973.263 173.005 975.573 173.427 977.737 174.27C979.937 175.113 981.862 176.378 983.512 178.065C985.162 179.715 986.463 181.787 987.417 184.28C988.407 186.773 988.902 189.652 988.902 192.915C988.902 196.178 988.407 199.057 987.417 201.55C986.463 204.043 985.162 206.133 983.512 207.82C981.862 209.47 979.937 210.717 977.737 211.56C975.573 212.403 973.263 212.825 970.807 212.825C968.313 212.825 965.948 212.403 963.712 211.56C961.512 210.717 959.568 209.47 957.882 207.82C956.232 206.133 954.912 204.043 953.922 201.55C952.968 199.057 952.492 196.178 952.492 192.915ZM958.102 192.915C958.102 195.225 958.395 197.333 958.982 199.24C959.568 201.11 960.393 202.705 961.457 204.025C962.557 205.345 963.877 206.372 965.417 207.105C966.993 207.802 968.753 208.15 970.697 208.15C972.64 208.15 974.382 207.802 975.922 207.105C977.462 206.372 978.763 205.345 979.827 204.025C980.927 202.705 981.77 201.11 982.357 199.24C982.943 197.333 983.237 195.225 983.237 192.915C983.237 190.605 982.943 188.515 982.357 186.645C981.77 184.738 980.927 183.125 979.827 181.805C978.763 180.485 977.462 179.477 975.922 178.78C974.382 178.047 972.64 177.68 970.697 177.68C968.753 177.68 966.993 178.047 965.417 178.78C963.877 179.477 962.557 180.485 961.457 181.805C960.393 183.125 959.568 184.738 958.982 186.645C958.395 188.515 958.102 190.605 958.102 192.915ZM1013.23 212.825C1010.55 212.825 1008.11 212.385 1005.91 211.505C1003.71 210.625 1001.83 209.342 1000.25 207.655C998.673 205.968 997.444 203.897 996.564 201.44C995.721 198.947 995.299 196.105 995.299 192.915C995.299 189.725 995.776 186.902 996.729 184.445C997.719 181.952 999.039 179.862 1000.69 178.175C1002.34 176.488 1004.26 175.205 1006.46 174.325C1008.66 173.445 1011.01 173.005 1013.5 173.005C1015.08 173.005 1016.49 173.115 1017.74 173.335C1019.02 173.555 1020.12 173.812 1021.04 174.105C1021.99 174.398 1022.76 174.692 1023.35 174.985C1023.94 175.278 1024.34 175.498 1024.56 175.645L1023.02 180.045C1022.69 179.825 1022.21 179.587 1021.59 179.33C1020.97 179.073 1020.25 178.817 1019.44 178.56C1018.67 178.303 1017.81 178.102 1016.86 177.955C1015.94 177.772 1015.01 177.68 1014.05 177.68C1012.04 177.68 1010.22 178.028 1008.61 178.725C1007 179.422 1005.62 180.43 1004.48 181.75C1003.35 183.07 1002.47 184.683 1001.84 186.59C1001.26 188.46 1000.96 190.568 1000.96 192.915C1000.96 195.188 1001.22 197.26 1001.73 199.13C1002.28 201 1003.09 202.613 1004.15 203.97C1005.22 205.29 1006.54 206.317 1008.11 207.05C1009.73 207.783 1011.6 208.15 1013.72 208.15C1016.18 208.15 1018.22 207.893 1019.83 207.38C1021.44 206.867 1022.65 206.408 1023.46 206.005L1024.83 210.405C1024.58 210.588 1024.12 210.827 1023.46 211.12C1022.8 211.377 1021.97 211.633 1020.98 211.89C1019.99 212.147 1018.84 212.367 1017.52 212.55C1016.2 212.733 1014.77 212.825 1013.23 212.825ZM1030.95 173.885H1036.28V212H1030.95V173.885ZM1071.18 212C1070.56 210.35 1069.97 208.737 1069.42 207.16C1068.87 205.547 1068.3 203.915 1067.72 202.265H1050.45L1046.98 212H1041.43C1042.89 207.967 1044.27 204.245 1045.55 200.835C1046.83 197.388 1048.08 194.125 1049.29 191.045C1050.54 187.965 1051.77 185.032 1052.98 182.245C1054.19 179.422 1055.45 176.635 1056.77 173.885H1061.67C1062.99 176.635 1064.25 179.422 1065.46 182.245C1066.67 185.032 1067.88 187.965 1069.09 191.045C1070.34 194.125 1071.6 197.388 1072.89 200.835C1074.17 204.245 1075.54 207.967 1077.01 212H1071.18ZM1066.18 197.865C1065 194.675 1063.83 191.595 1062.66 188.625C1061.52 185.618 1060.33 182.74 1059.08 179.99C1057.8 182.74 1056.57 185.618 1055.4 188.625C1054.26 191.595 1053.12 194.675 1051.99 197.865H1066.18ZM1104.11 173.885V178.505H1092.12V212H1086.78V178.505H1074.79V173.885H1104.11ZM1109.74 173.885H1115.07V212H1109.74V173.885ZM1122.97 192.915C1122.97 189.652 1123.45 186.773 1124.4 184.28C1125.39 181.787 1126.71 179.715 1128.36 178.065C1130.05 176.378 1131.99 175.113 1134.19 174.27C1136.43 173.427 1138.79 173.005 1141.29 173.005C1143.74 173.005 1146.05 173.427 1148.22 174.27C1150.42 175.113 1152.34 176.378 1153.99 178.065C1155.64 179.715 1156.94 181.787 1157.9 184.28C1158.89 186.773 1159.38 189.652 1159.38 192.915C1159.38 196.178 1158.89 199.057 1157.9 201.55C1156.94 204.043 1155.64 206.133 1153.99 207.82C1152.34 209.47 1150.42 210.717 1148.22 211.56C1146.05 212.403 1143.74 212.825 1141.29 212.825C1138.79 212.825 1136.43 212.403 1134.19 211.56C1131.99 210.717 1130.05 209.47 1128.36 207.82C1126.71 206.133 1125.39 204.043 1124.4 201.55C1123.45 199.057 1122.97 196.178 1122.97 192.915ZM1128.58 192.915C1128.58 195.225 1128.87 197.333 1129.46 199.24C1130.05 201.11 1130.87 202.705 1131.94 204.025C1133.04 205.345 1134.36 206.372 1135.9 207.105C1137.47 207.802 1139.23 208.15 1141.18 208.15C1143.12 208.15 1144.86 207.802 1146.4 207.105C1147.94 206.372 1149.24 205.345 1150.31 204.025C1151.41 202.705 1152.25 201.11 1152.84 199.24C1153.42 197.333 1153.72 195.225 1153.72 192.915C1153.72 190.605 1153.42 188.515 1152.84 186.645C1152.25 184.738 1151.41 183.125 1150.31 181.805C1149.24 180.485 1147.94 179.477 1146.4 178.78C1144.86 178.047 1143.12 177.68 1141.18 177.68C1139.23 177.68 1137.47 178.047 1135.9 178.78C1134.36 179.477 1133.04 180.485 1131.94 181.805C1130.87 183.125 1130.05 184.738 1129.46 186.645C1128.87 188.515 1128.58 190.605 1128.58 192.915ZM1193.44 212C1192.64 210.643 1191.7 209.122 1190.64 207.435C1189.61 205.748 1188.49 204.007 1187.28 202.21C1186.07 200.377 1184.81 198.525 1183.49 196.655C1182.2 194.785 1180.92 192.988 1179.64 191.265C1178.35 189.505 1177.11 187.855 1175.9 186.315C1174.69 184.775 1173.57 183.418 1172.54 182.245V212H1167.32V173.885H1171.55C1173.28 175.718 1175.11 177.863 1177.05 180.32C1179.03 182.74 1180.98 185.252 1182.88 187.855C1184.83 190.422 1186.64 192.952 1188.33 195.445C1190.05 197.938 1191.5 200.157 1192.67 202.1V173.885H1197.9V212H1193.44ZM1218.52 192.915C1218.52 189.652 1219 186.773 1219.95 184.28C1220.94 181.787 1222.26 179.715 1223.91 178.065C1225.6 176.378 1227.54 175.113 1229.74 174.27C1231.98 173.427 1234.34 173.005 1236.84 173.005C1239.29 173.005 1241.6 173.427 1243.77 174.27C1245.97 175.113 1247.89 176.378 1249.54 178.065C1251.19 179.715 1252.49 181.787 1253.45 184.28C1254.44 186.773 1254.93 189.652 1254.93 192.915C1254.93 196.178 1254.44 199.057 1253.45 201.55C1252.49 204.043 1251.19 206.133 1249.54 207.82C1247.89 209.47 1245.97 210.717 1243.77 211.56C1241.6 212.403 1239.29 212.825 1236.84 212.825C1234.34 212.825 1231.98 212.403 1229.74 211.56C1227.54 210.717 1225.6 209.47 1223.91 207.82C1222.26 206.133 1220.94 204.043 1219.95 201.55C1219 199.057 1218.52 196.178 1218.52 192.915ZM1224.13 192.915C1224.13 195.225 1224.43 197.333 1225.01 199.24C1225.6 201.11 1226.42 202.705 1227.49 204.025C1228.59 205.345 1229.91 206.372 1231.45 207.105C1233.02 207.802 1234.78 208.15 1236.73 208.15C1238.67 208.15 1240.41 207.802 1241.95 207.105C1243.49 206.372 1244.79 205.345 1245.86 204.025C1246.96 202.705 1247.8 201.11 1248.39 199.24C1248.97 197.333 1249.27 195.225 1249.27 192.915C1249.27 190.605 1248.97 188.515 1248.39 186.645C1247.8 184.738 1246.96 183.125 1245.86 181.805C1244.79 180.485 1243.49 179.477 1241.95 178.78C1240.41 178.047 1238.67 177.68 1236.73 177.68C1234.78 177.68 1233.02 178.047 1231.45 178.78C1229.91 179.477 1228.59 180.485 1227.49 181.805C1226.42 183.125 1225.6 184.738 1225.01 186.645C1224.43 188.515 1224.13 190.605 1224.13 192.915ZM1262.87 212V173.885H1285.86V178.45H1268.2V189.945H1283.88V194.455H1268.2V212H1262.87Z" fill="black"/>
<path d="M537.733 236.885C538.393 238.095 539.145 239.598 539.988 241.395C540.868 243.155 541.766 245.08 542.683 247.17C543.636 249.223 544.571 251.332 545.488 253.495C546.405 255.658 547.266 257.693 548.073 259.6C548.88 257.693 549.741 255.658 550.658 253.495C551.575 251.332 552.491 249.223 553.408 247.17C554.361 245.08 555.26 243.155 556.103 241.395C556.983 239.598 557.753 238.095 558.413 236.885H566.223C566.59 239.415 566.92 242.257 567.213 245.41C567.543 248.527 567.818 251.79 568.038 255.2C568.295 258.573 568.515 261.965 568.698 265.375C568.918 268.785 569.101 271.993 569.248 275H560.888C560.778 271.297 560.631 267.263 560.448 262.9C560.265 258.537 559.99 254.137 559.623 249.7C558.963 251.24 558.23 252.945 557.423 254.815C556.616 256.685 555.81 258.555 555.003 260.425C554.233 262.295 553.481 264.092 552.748 265.815C552.015 267.502 551.391 268.95 550.878 270.16H544.883C544.37 268.95 543.746 267.502 543.013 265.815C542.28 264.092 541.51 262.295 540.703 260.425C539.933 258.555 539.145 256.685 538.338 254.815C537.531 252.945 536.798 251.24 536.138 249.7C535.771 254.137 535.496 258.537 535.313 262.9C535.13 267.263 534.983 271.297 534.873 275H526.513C526.66 271.993 526.825 268.785 527.008 265.375C527.228 261.965 527.448 258.573 527.668 255.2C527.925 251.79 528.2 248.527 528.493 245.41C528.823 242.257 529.171 239.415 529.538 236.885H537.733ZM576.973 275V236.885H602.713V244.09H585.553V251.57H600.788V258.61H585.553V267.795H603.978V275H576.973ZM638.598 236.885V244.2H627.103V275H618.523V244.2H607.028V236.885H638.598ZM665.12 275C664.717 273.68 664.259 272.323 663.745 270.93C663.269 269.537 662.792 268.143 662.315 266.75H647.465C646.989 268.143 646.494 269.537 645.98 270.93C645.504 272.323 645.064 273.68 644.66 275H635.75C637.18 270.893 638.537 267.098 639.82 263.615C641.104 260.132 642.35 256.85 643.56 253.77C644.807 250.69 646.017 247.775 647.19 245.025C648.4 242.238 649.647 239.525 650.93 236.885H659.125C660.372 239.525 661.6 242.238 662.81 245.025C664.02 247.775 665.23 250.69 666.44 253.77C667.687 256.85 668.952 260.132 670.235 263.615C671.519 267.098 672.875 270.893 674.305 275H665.12ZM654.835 245.52C654.652 246.07 654.377 246.822 654.01 247.775C653.644 248.728 653.222 249.828 652.745 251.075C652.269 252.322 651.737 253.697 651.15 255.2C650.6 256.703 650.032 258.28 649.445 259.93H660.28C659.694 258.28 659.125 256.703 658.575 255.2C658.025 253.697 657.494 252.322 656.98 251.075C656.504 249.828 656.082 248.728 655.715 247.775C655.349 246.822 655.055 246.07 654.835 245.52ZM691.944 275.495C689.854 275.495 687.764 275.422 685.674 275.275C683.621 275.165 681.476 274.872 679.239 274.395V237.435C680.999 237.105 682.924 236.867 685.014 236.72C687.104 236.537 689.047 236.445 690.844 236.445C693.264 236.445 695.482 236.628 697.499 236.995C699.552 237.325 701.312 237.912 702.779 238.755C704.246 239.598 705.382 240.717 706.189 242.11C707.032 243.467 707.454 245.153 707.454 247.17C707.454 250.213 705.987 252.615 703.054 254.375C705.474 255.292 707.124 256.538 708.004 258.115C708.884 259.692 709.324 261.47 709.324 263.45C709.324 267.447 707.857 270.453 704.924 272.47C702.027 274.487 697.701 275.495 691.944 275.495ZM687.599 258.39V268.235C688.222 268.308 688.901 268.363 689.634 268.4C690.367 268.437 691.174 268.455 692.054 268.455C694.621 268.455 696.692 268.088 698.269 267.355C699.846 266.622 700.634 265.265 700.634 263.285C700.634 261.525 699.974 260.278 698.654 259.545C697.334 258.775 695.446 258.39 692.989 258.39H687.599ZM687.599 251.845H691.779C694.419 251.845 696.307 251.515 697.444 250.855C698.581 250.158 699.149 249.058 699.149 247.555C699.149 246.015 698.562 244.933 697.389 244.31C696.216 243.687 694.492 243.375 692.219 243.375C691.486 243.375 690.697 243.393 689.854 243.43C689.011 243.43 688.259 243.467 687.599 243.54V251.845ZM723.397 255.915C723.397 257.785 723.617 259.472 724.057 260.975C724.534 262.478 725.194 263.78 726.037 264.88C726.917 265.943 727.98 266.768 729.227 267.355C730.474 267.942 731.904 268.235 733.517 268.235C735.094 268.235 736.505 267.942 737.752 267.355C739.035 266.768 740.099 265.943 740.942 264.88C741.822 263.78 742.482 262.478 742.922 260.975C743.399 259.472 743.637 257.785 743.637 255.915C743.637 254.045 743.399 252.358 742.922 250.855C742.482 249.315 741.822 248.013 740.942 246.95C740.099 245.85 739.035 245.007 737.752 244.42C736.505 243.833 735.094 243.54 733.517 243.54C731.904 243.54 730.474 243.852 729.227 244.475C727.98 245.062 726.917 245.905 726.037 247.005C725.194 248.068 724.534 249.37 724.057 250.91C723.617 252.413 723.397 254.082 723.397 255.915ZM752.492 255.915C752.492 259.178 751.997 262.057 751.007 264.55C750.054 267.007 748.734 269.078 747.047 270.765C745.36 272.415 743.344 273.662 740.997 274.505C738.687 275.348 736.194 275.77 733.517 275.77C730.914 275.77 728.457 275.348 726.147 274.505C723.837 273.662 721.82 272.415 720.097 270.765C718.374 269.078 717.017 267.007 716.027 264.55C715.037 262.057 714.542 259.178 714.542 255.915C714.542 252.652 715.055 249.792 716.082 247.335C717.109 244.842 718.484 242.752 720.207 241.065C721.967 239.378 723.984 238.113 726.257 237.27C728.567 236.427 730.987 236.005 733.517 236.005C736.12 236.005 738.577 236.427 740.887 237.27C743.197 238.113 745.214 239.378 746.937 241.065C748.66 242.752 750.017 244.842 751.007 247.335C751.997 249.792 752.492 252.652 752.492 255.915ZM785.109 267.63V275H759.644V236.885H768.224V267.63H785.109ZM790.635 236.885H799.215V275H790.635V236.885ZM825.418 275.77C819.221 275.77 814.491 274.047 811.228 270.6C808.001 267.153 806.388 262.258 806.388 255.915C806.388 252.762 806.883 249.957 807.873 247.5C808.863 245.007 810.219 242.917 811.943 241.23C813.666 239.507 815.719 238.205 818.103 237.325C820.486 236.445 823.071 236.005 825.858 236.005C827.471 236.005 828.938 236.133 830.258 236.39C831.578 236.61 832.733 236.885 833.723 237.215C834.713 237.508 835.538 237.82 836.198 238.15C836.858 238.48 837.334 238.737 837.628 238.92L835.153 245.85C833.979 245.227 832.604 244.695 831.028 244.255C829.488 243.815 827.728 243.595 825.748 243.595C824.428 243.595 823.126 243.815 821.843 244.255C820.596 244.695 819.478 245.41 818.488 246.4C817.534 247.353 816.764 248.6 816.178 250.14C815.591 251.68 815.298 253.55 815.298 255.75C815.298 257.51 815.481 259.16 815.848 260.7C816.251 262.203 816.874 263.505 817.718 264.605C818.598 265.705 819.734 266.585 821.128 267.245C822.521 267.868 824.208 268.18 826.188 268.18C827.434 268.18 828.553 268.107 829.543 267.96C830.533 267.813 831.413 267.648 832.183 267.465C832.953 267.245 833.631 267.007 834.218 266.75C834.804 266.493 835.336 266.255 835.813 266.035L838.178 272.91C836.968 273.643 835.263 274.303 833.063 274.89C830.863 275.477 828.314 275.77 825.418 275.77ZM882.435 275C882.031 273.68 881.573 272.323 881.06 270.93C880.583 269.537 880.106 268.143 879.63 266.75H864.78C864.303 268.143 863.808 269.537 863.295 270.93C862.818 272.323 862.378 273.68 861.975 275H853.065C854.495 270.893 855.851 267.098 857.135 263.615C858.418 260.132 859.665 256.85 860.875 253.77C862.121 250.69 863.331 247.775 864.505 245.025C865.715 242.238 866.961 239.525 868.245 236.885H876.44C877.686 239.525 878.915 242.238 880.125 245.025C881.335 247.775 882.545 250.69 883.755 253.77C885.001 256.85 886.266 260.132 887.55 263.615C888.833 267.098 890.19 270.893 891.62 275H882.435ZM872.15 245.52C871.966 246.07 871.691 246.822 871.325 247.775C870.958 248.728 870.536 249.828 870.06 251.075C869.583 252.322 869.051 253.697 868.465 255.2C867.915 256.703 867.346 258.28 866.76 259.93H877.595C877.008 258.28 876.44 256.703 875.89 255.2C875.34 253.697 874.808 252.322 874.295 251.075C873.818 249.828 873.396 248.728 873.03 247.775C872.663 246.822 872.37 246.07 872.15 245.52ZM922.128 275C919.672 270.637 917.013 266.328 914.153 262.075C911.293 257.822 908.25 253.807 905.023 250.03V275H896.553V236.885H903.538C904.748 238.095 906.087 239.58 907.553 241.34C909.02 243.1 910.505 244.988 912.008 247.005C913.548 248.985 915.07 251.057 916.573 253.22C918.077 255.347 919.488 257.4 920.808 259.38V236.885H929.333V275H922.128ZM946.706 268.015C947.109 268.052 947.567 268.088 948.081 268.125C948.631 268.125 949.272 268.125 950.006 268.125C954.296 268.125 957.467 267.043 959.521 264.88C961.611 262.717 962.656 259.728 962.656 255.915C962.656 251.918 961.666 248.893 959.686 246.84C957.706 244.787 954.571 243.76 950.281 243.76C949.694 243.76 949.089 243.778 948.466 243.815C947.842 243.815 947.256 243.852 946.706 243.925V268.015ZM971.511 255.915C971.511 259.215 970.997 262.093 969.971 264.55C968.944 267.007 967.477 269.042 965.571 270.655C963.701 272.268 961.409 273.478 958.696 274.285C955.982 275.092 952.939 275.495 949.566 275.495C948.026 275.495 946.229 275.422 944.176 275.275C942.122 275.165 940.106 274.908 938.126 274.505V237.38C940.106 237.013 942.159 236.775 944.286 236.665C946.449 236.518 948.301 236.445 949.841 236.445C953.104 236.445 956.056 236.812 958.696 237.545C961.372 238.278 963.664 239.433 965.571 241.01C967.477 242.587 968.944 244.603 969.971 247.06C970.997 249.517 971.511 252.468 971.511 255.915ZM1004.6 275.495C1002.51 275.495 1000.42 275.422 998.325 275.275C996.272 275.165 994.127 274.872 991.89 274.395V237.435C993.65 237.105 995.575 236.867 997.665 236.72C999.755 236.537 1001.7 236.445 1003.5 236.445C1005.92 236.445 1008.13 236.628 1010.15 236.995C1012.2 237.325 1013.96 237.912 1015.43 238.755C1016.9 239.598 1018.03 240.717 1018.84 242.11C1019.68 243.467 1020.11 245.153 1020.11 247.17C1020.11 250.213 1018.64 252.615 1015.71 254.375C1018.13 255.292 1019.78 256.538 1020.66 258.115C1021.54 259.692 1021.98 261.47 1021.98 263.45C1021.98 267.447 1020.51 270.453 1017.58 272.47C1014.68 274.487 1010.35 275.495 1004.6 275.495ZM1000.25 258.39V268.235C1000.87 268.308 1001.55 268.363 1002.29 268.4C1003.02 268.437 1003.83 268.455 1004.71 268.455C1007.27 268.455 1009.34 268.088 1010.92 267.355C1012.5 266.622 1013.29 265.265 1013.29 263.285C1013.29 261.525 1012.63 260.278 1011.31 259.545C1009.99 258.775 1008.1 258.39 1005.64 258.39H1000.25ZM1000.25 251.845H1004.43C1007.07 251.845 1008.96 251.515 1010.1 250.855C1011.23 250.158 1011.8 249.058 1011.8 247.555C1011.8 246.015 1011.21 244.933 1010.04 244.31C1008.87 243.687 1007.14 243.375 1004.87 243.375C1004.14 243.375 1003.35 243.393 1002.51 243.43C1001.66 243.43 1000.91 243.467 1000.25 243.54V251.845ZM1053.83 275C1053.42 273.68 1052.96 272.323 1052.45 270.93C1051.97 269.537 1051.5 268.143 1051.02 266.75H1036.17C1035.69 268.143 1035.2 269.537 1034.69 270.93C1034.21 272.323 1033.77 273.68 1033.37 275H1024.46C1025.89 270.893 1027.24 267.098 1028.53 263.615C1029.81 260.132 1031.06 256.85 1032.27 253.77C1033.51 250.69 1034.72 247.775 1035.9 245.025C1037.11 242.238 1038.35 239.525 1039.64 236.885H1047.83C1049.08 239.525 1050.31 242.238 1051.52 245.025C1052.73 247.775 1053.94 250.69 1055.15 253.77C1056.39 256.85 1057.66 260.132 1058.94 263.615C1060.22 267.098 1061.58 270.893 1063.01 275H1053.83ZM1043.54 245.52C1043.36 246.07 1043.08 246.822 1042.72 247.775C1042.35 248.728 1041.93 249.828 1041.45 251.075C1040.97 252.322 1040.44 253.697 1039.86 255.2C1039.31 256.703 1038.74 258.28 1038.15 259.93H1048.99C1048.4 258.28 1047.83 256.703 1047.28 255.2C1046.73 253.697 1046.2 252.322 1045.69 251.075C1045.21 249.828 1044.79 248.728 1044.42 247.775C1044.05 246.822 1043.76 246.07 1043.54 245.52ZM1079.11 236.445C1084.83 236.445 1089.21 237.472 1092.25 239.525C1095.3 241.542 1096.82 244.695 1096.82 248.985C1096.82 251.662 1096.2 253.843 1094.95 255.53C1093.74 257.18 1091.98 258.482 1089.67 259.435C1090.44 260.388 1091.25 261.488 1092.09 262.735C1092.93 263.945 1093.76 265.228 1094.56 266.585C1095.41 267.905 1096.21 269.298 1096.98 270.765C1097.75 272.195 1098.47 273.607 1099.13 275H1089.5C1088.81 273.753 1088.09 272.488 1087.36 271.205C1086.66 269.922 1085.93 268.675 1085.16 267.465C1084.43 266.255 1083.69 265.118 1082.96 264.055C1082.23 262.955 1081.49 261.965 1080.76 261.085H1076.52V275H1067.94V237.435C1069.81 237.068 1071.74 236.812 1073.72 236.665C1075.74 236.518 1077.53 236.445 1079.11 236.445ZM1079.6 243.76C1078.98 243.76 1078.41 243.778 1077.9 243.815C1077.42 243.852 1076.96 243.888 1076.52 243.925V254.265H1078.94C1082.17 254.265 1084.48 253.862 1085.87 253.055C1087.27 252.248 1087.96 250.873 1087.96 248.93C1087.96 247.06 1087.25 245.74 1085.82 244.97C1084.43 244.163 1082.35 243.76 1079.6 243.76ZM1104.63 236.885H1113.21V275H1104.63V236.885ZM1147.55 275C1147.15 273.68 1146.69 272.323 1146.18 270.93C1145.7 269.537 1145.22 268.143 1144.75 266.75H1129.9C1129.42 268.143 1128.93 269.537 1128.41 270.93C1127.94 272.323 1127.5 273.68 1127.09 275H1118.18C1119.61 270.893 1120.97 267.098 1122.25 263.615C1123.54 260.132 1124.78 256.85 1125.99 253.77C1127.24 250.69 1128.45 247.775 1129.62 245.025C1130.83 242.238 1132.08 239.525 1133.36 236.885H1141.56C1142.8 239.525 1144.03 242.238 1145.24 245.025C1146.45 247.775 1147.66 250.69 1148.87 253.77C1150.12 256.85 1151.38 260.132 1152.67 263.615C1153.95 267.098 1155.31 270.893 1156.74 275H1147.55ZM1137.27 245.52C1137.08 246.07 1136.81 246.822 1136.44 247.775C1136.08 248.728 1135.65 249.828 1135.18 251.075C1134.7 252.322 1134.17 253.697 1133.58 255.2C1133.03 256.703 1132.46 258.28 1131.88 259.93H1142.71C1142.13 258.28 1141.56 256.703 1141.01 255.2C1140.46 253.697 1139.93 252.322 1139.41 251.075C1138.94 249.828 1138.51 248.728 1138.15 247.775C1137.78 246.822 1137.49 246.07 1137.27 245.52ZM1185.43 236.885V244.2H1173.93V275H1165.35V244.2H1153.86V236.885H1185.43ZM1202.11 236.445C1207.83 236.445 1212.21 237.472 1215.25 239.525C1218.3 241.542 1219.82 244.695 1219.82 248.985C1219.82 251.662 1219.19 253.843 1217.95 255.53C1216.74 257.18 1214.98 258.482 1212.67 259.435C1213.44 260.388 1214.24 261.488 1215.09 262.735C1215.93 263.945 1216.76 265.228 1217.56 266.585C1218.41 267.905 1219.21 269.298 1219.98 270.765C1220.75 272.195 1221.47 273.607 1222.13 275H1212.5C1211.81 273.753 1211.09 272.488 1210.36 271.205C1209.66 269.922 1208.93 268.675 1208.16 267.465C1207.42 266.255 1206.69 265.118 1205.96 264.055C1205.22 262.955 1204.49 261.965 1203.76 261.085H1199.52V275H1190.94V237.435C1192.81 237.068 1194.74 236.812 1196.72 236.665C1198.73 236.518 1200.53 236.445 1202.11 236.445ZM1202.6 243.76C1201.98 243.76 1201.41 243.778 1200.9 243.815C1200.42 243.852 1199.96 243.888 1199.52 243.925V254.265H1201.94C1205.17 254.265 1207.48 253.862 1208.87 253.055C1210.27 252.248 1210.96 250.873 1210.96 248.93C1210.96 247.06 1210.25 245.74 1208.82 244.97C1207.42 244.163 1205.35 243.76 1202.6 243.76ZM1227.63 236.885H1236.21V275H1227.63V236.885ZM1262.41 275.77C1256.21 275.77 1251.48 274.047 1248.22 270.6C1244.99 267.153 1243.38 262.258 1243.38 255.915C1243.38 252.762 1243.87 249.957 1244.86 247.5C1245.85 245.007 1247.21 242.917 1248.93 241.23C1250.66 239.507 1252.71 238.205 1255.09 237.325C1257.48 236.445 1260.06 236.005 1262.85 236.005C1264.46 236.005 1265.93 236.133 1267.25 236.39C1268.57 236.61 1269.72 236.885 1270.71 237.215C1271.7 237.508 1272.53 237.82 1273.19 238.15C1273.85 238.48 1274.33 238.737 1274.62 238.92L1272.14 245.85C1270.97 245.227 1269.6 244.695 1268.02 244.255C1266.48 243.815 1264.72 243.595 1262.74 243.595C1261.42 243.595 1260.12 243.815 1258.83 244.255C1257.59 244.695 1256.47 245.41 1255.48 246.4C1254.53 247.353 1253.76 248.6 1253.17 250.14C1252.58 251.68 1252.29 253.55 1252.29 255.75C1252.29 257.51 1252.47 259.16 1252.84 260.7C1253.24 262.203 1253.87 263.505 1254.71 264.605C1255.59 265.705 1256.73 266.585 1258.12 267.245C1259.51 267.868 1261.2 268.18 1263.18 268.18C1264.43 268.18 1265.54 268.107 1266.53 267.96C1267.52 267.813 1268.4 267.648 1269.17 267.465C1269.94 267.245 1270.62 267.007 1271.21 266.75C1271.8 266.493 1272.33 266.255 1272.8 266.035L1275.17 272.91C1273.96 273.643 1272.25 274.303 1270.05 274.89C1267.85 275.477 1265.31 275.77 1262.41 275.77ZM536.314 334.205C541.888 334.205 544.674 332.298 544.674 328.485C544.674 327.312 544.418 326.322 543.904 325.515C543.428 324.672 542.768 323.957 541.924 323.37C541.081 322.747 540.109 322.215 539.009 321.775C537.946 321.335 536.809 320.895 535.599 320.455C534.206 319.978 532.886 319.447 531.639 318.86C530.393 318.237 529.311 317.522 528.394 316.715C527.478 315.872 526.744 314.882 526.194 313.745C525.681 312.608 525.424 311.233 525.424 309.62C525.424 306.283 526.561 303.68 528.834 301.81C531.108 299.94 534.243 299.005 538.239 299.005C540.549 299.005 542.639 299.262 544.509 299.775C546.416 300.252 547.809 300.783 548.689 301.37L546.984 305.715C546.214 305.238 545.059 304.78 543.519 304.34C542.016 303.863 540.256 303.625 538.239 303.625C537.213 303.625 536.259 303.735 535.379 303.955C534.499 304.175 533.729 304.505 533.069 304.945C532.409 305.385 531.878 305.953 531.474 306.65C531.108 307.31 530.924 308.098 530.924 309.015C530.924 310.042 531.126 310.903 531.529 311.6C531.933 312.297 532.501 312.92 533.234 313.47C533.968 313.983 534.811 314.46 535.764 314.9C536.754 315.34 537.836 315.78 539.009 316.22C540.659 316.88 542.163 317.54 543.519 318.2C544.913 318.86 546.104 319.648 547.094 320.565C548.121 321.482 548.909 322.582 549.459 323.865C550.009 325.112 550.284 326.633 550.284 328.43C550.284 331.767 549.056 334.333 546.599 336.13C544.179 337.927 540.751 338.825 536.314 338.825C534.811 338.825 533.418 338.715 532.134 338.495C530.888 338.312 529.769 338.092 528.779 337.835C527.789 337.542 526.928 337.248 526.194 336.955C525.498 336.625 524.948 336.35 524.544 336.13L526.139 331.73C526.983 332.207 528.266 332.738 529.989 333.325C531.713 333.912 533.821 334.205 536.314 334.205ZM570.922 338.825C568.429 338.825 566.265 338.44 564.432 337.67C562.599 336.9 561.095 335.855 559.922 334.535C558.749 333.178 557.869 331.583 557.282 329.75C556.732 327.917 556.457 325.937 556.457 323.81V299.885H561.792V323.205C561.792 327.018 562.635 329.787 564.322 331.51C566.009 333.233 568.209 334.095 570.922 334.095C572.279 334.095 573.507 333.893 574.607 333.49C575.744 333.05 576.715 332.39 577.522 331.51C578.329 330.63 578.952 329.512 579.392 328.155C579.832 326.762 580.052 325.112 580.052 323.205V299.885H585.387V323.81C585.387 325.937 585.094 327.917 584.507 329.75C583.957 331.583 583.077 333.178 581.867 334.535C580.694 335.855 579.19 336.9 577.357 337.67C575.56 338.44 573.415 338.825 570.922 338.825ZM613.243 322.05C613.83 322.783 614.563 323.755 615.443 324.965C616.36 326.138 617.295 327.458 618.248 328.925C619.202 330.355 620.137 331.858 621.053 333.435C622.006 335.012 622.813 336.533 623.473 338H617.643C616.91 336.607 616.103 335.195 615.223 333.765C614.38 332.335 613.518 330.978 612.638 329.695C611.758 328.375 610.878 327.147 609.998 326.01C609.155 324.873 608.385 323.883 607.688 323.04C607.211 323.077 606.716 323.095 606.203 323.095C605.726 323.095 605.231 323.095 604.718 323.095H599.933V338H594.598V300.435C596.101 300.068 597.77 299.83 599.603 299.72C601.473 299.573 603.178 299.5 604.718 299.5C610.071 299.5 614.141 300.508 616.928 302.525C619.751 304.542 621.163 307.548 621.163 311.545C621.163 314.075 620.485 316.238 619.128 318.035C617.808 319.832 615.846 321.17 613.243 322.05ZM605.158 304.175C602.885 304.175 601.143 304.23 599.933 304.34V318.695H603.728C605.561 318.695 607.211 318.603 608.678 318.42C610.145 318.237 611.373 317.888 612.363 317.375C613.39 316.862 614.178 316.147 614.728 315.23C615.278 314.277 615.553 313.03 615.553 311.49C615.553 310.06 615.278 308.868 614.728 307.915C614.178 306.962 613.426 306.21 612.473 305.66C611.556 305.11 610.456 304.725 609.173 304.505C607.926 304.285 606.588 304.175 605.158 304.175ZM651.862 319.245H657.197V337.065C656.757 337.212 656.116 337.377 655.272 337.56C654.466 337.743 653.512 337.927 652.412 338.11C651.349 338.293 650.176 338.44 648.892 338.55C647.609 338.697 646.307 338.77 644.987 338.77C642.311 338.77 639.872 338.33 637.672 337.45C635.472 336.57 633.584 335.287 632.007 333.6C630.431 331.913 629.202 329.842 628.322 327.385C627.479 324.928 627.057 322.105 627.057 318.915C627.057 315.725 627.534 312.902 628.487 310.445C629.477 307.952 630.797 305.862 632.447 304.175C634.097 302.488 636.022 301.205 638.222 300.325C640.459 299.445 642.842 299.005 645.372 299.005C647.096 299.005 648.617 299.115 649.937 299.335C651.294 299.555 652.449 299.812 653.402 300.105C654.356 300.398 655.126 300.692 655.712 300.985C656.336 301.278 656.757 301.498 656.977 301.645L655.272 306.1C654.209 305.403 652.797 304.835 651.037 304.395C649.277 303.918 647.481 303.68 645.647 303.68C643.704 303.68 641.926 304.028 640.312 304.725C638.736 305.422 637.379 306.43 636.242 307.75C635.142 309.07 634.281 310.683 633.657 312.59C633.034 314.46 632.722 316.568 632.722 318.915C632.722 321.188 632.979 323.26 633.492 325.13C634.042 327 634.849 328.613 635.912 329.97C637.012 331.29 638.351 332.317 639.927 333.05C641.541 333.783 643.429 334.15 645.592 334.15C647.132 334.15 648.434 334.077 649.497 333.93C650.597 333.747 651.386 333.582 651.862 333.435V319.245ZM665.55 338V299.885H688.815V304.45H670.885V315.78H686.835V320.235H670.885V333.435H690.19V338H665.55ZM693.874 318.915C693.874 315.652 694.35 312.773 695.304 310.28C696.294 307.787 697.614 305.715 699.264 304.065C700.95 302.378 702.894 301.113 705.094 300.27C707.33 299.427 709.695 299.005 712.189 299.005C714.645 299.005 716.955 299.427 719.119 300.27C721.319 301.113 723.244 302.378 724.894 304.065C726.544 305.715 727.845 307.787 728.799 310.28C729.789 312.773 730.284 315.652 730.284 318.915C730.284 322.178 729.789 325.057 728.799 327.55C727.845 330.043 726.544 332.133 724.894 333.82C723.244 335.47 721.319 336.717 719.119 337.56C716.955 338.403 714.645 338.825 712.189 338.825C709.695 338.825 707.33 338.403 705.094 337.56C702.894 336.717 700.95 335.47 699.264 333.82C697.614 332.133 696.294 330.043 695.304 327.55C694.35 325.057 693.874 322.178 693.874 318.915ZM699.484 318.915C699.484 321.225 699.777 323.333 700.364 325.24C700.95 327.11 701.775 328.705 702.839 330.025C703.939 331.345 705.259 332.372 706.799 333.105C708.375 333.802 710.135 334.15 712.079 334.15C714.022 334.15 715.764 333.802 717.304 333.105C718.844 332.372 720.145 331.345 721.209 330.025C722.309 328.705 723.152 327.11 723.739 325.24C724.325 323.333 724.619 321.225 724.619 318.915C724.619 316.605 724.325 314.515 723.739 312.645C723.152 310.738 722.309 309.125 721.209 307.805C720.145 306.485 718.844 305.477 717.304 304.78C715.764 304.047 714.022 303.68 712.079 303.68C710.135 303.68 708.375 304.047 706.799 304.78C705.259 305.477 703.939 306.485 702.839 307.805C701.775 309.125 700.95 310.738 700.364 312.645C699.777 314.515 699.484 316.605 699.484 318.915ZM764.346 338C763.54 336.643 762.605 335.122 761.541 333.435C760.515 331.748 759.396 330.007 758.186 328.21C756.976 326.377 755.711 324.525 754.391 322.655C753.108 320.785 751.825 318.988 750.541 317.265C749.258 315.505 748.011 313.855 746.801 312.315C745.591 310.775 744.473 309.418 743.446 308.245V338H738.221V299.885H742.456C744.18 301.718 746.013 303.863 747.956 306.32C749.936 308.74 751.88 311.252 753.786 313.855C755.73 316.422 757.545 318.952 759.231 321.445C760.955 323.938 762.403 326.157 763.576 328.1V299.885H768.801V338H764.346ZM787.091 334.205C792.664 334.205 795.451 332.298 795.451 328.485C795.451 327.312 795.194 326.322 794.681 325.515C794.204 324.672 793.544 323.957 792.701 323.37C791.858 322.747 790.886 322.215 789.786 321.775C788.723 321.335 787.586 320.895 786.376 320.455C784.983 319.978 783.663 319.447 782.416 318.86C781.169 318.237 780.088 317.522 779.171 316.715C778.254 315.872 777.521 314.882 776.971 313.745C776.458 312.608 776.201 311.233 776.201 309.62C776.201 306.283 777.338 303.68 779.611 301.81C781.884 299.94 785.019 299.005 789.016 299.005C791.326 299.005 793.416 299.262 795.286 299.775C797.193 300.252 798.586 300.783 799.466 301.37L797.761 305.715C796.991 305.238 795.836 304.78 794.296 304.34C792.793 303.863 791.033 303.625 789.016 303.625C787.989 303.625 787.036 303.735 786.156 303.955C785.276 304.175 784.506 304.505 783.846 304.945C783.186 305.385 782.654 305.953 782.251 306.65C781.884 307.31 781.701 308.098 781.701 309.015C781.701 310.042 781.903 310.903 782.306 311.6C782.709 312.297 783.278 312.92 784.011 313.47C784.744 313.983 785.588 314.46 786.541 314.9C787.531 315.34 788.613 315.78 789.786 316.22C791.436 316.88 792.939 317.54 794.296 318.2C795.689 318.86 796.881 319.648 797.871 320.565C798.898 321.482 799.686 322.582 800.236 323.865C800.786 325.112 801.061 326.633 801.061 328.43C801.061 331.767 799.833 334.333 797.376 336.13C794.956 337.927 791.528 338.825 787.091 338.825C785.588 338.825 784.194 338.715 782.911 338.495C781.664 338.312 780.546 338.092 779.556 337.835C778.566 337.542 777.704 337.248 776.971 336.955C776.274 336.625 775.724 336.35 775.321 336.13L776.916 331.73C777.759 332.207 779.043 332.738 780.766 333.325C782.489 333.912 784.598 334.205 787.091 334.205Z" fill="#7F2941"/>
</svg>
